<svg viewBox="0 0 184 198" fill="none" xmlns="http://www.w3.org/2000/svg">
	<path d="M159 63.4697L144.138 46.6011L146.209 24.2714L124.221 19.2957L112.709 0L92 8.85905L71.2909 0L59.7791 19.2957L37.7909 24.2107L39.8618 46.5404L25 63.4697L39.8618 80.3383L37.7909 102.729L59.7791 107.704L71.2909 127L92 118.08L112.709 126.939L124.221 107.644L146.209 102.668L144.138 80.3383L159 63.4697ZM79.8182 93.8089L55.4545 69.5375L64.0427 60.9818L79.8182 76.6369L119.957 36.6498L128.545 45.2661L79.8182 93.8089Z" fill="#38AE52" />
	<path d="M9.69953 172.958L1.9272 173C1.78601 173 1.71542 172.929 1.71542 172.788L1.80013 142.991C1.80013 142.878 1.85661 142.821 1.96955 142.821L10.0807 142.779C11.6903 142.737 13.1445 143.104 14.4434 143.88C15.7564 144.657 16.8012 145.709 17.5777 147.036C18.3684 148.349 18.7637 149.803 18.7637 151.398V163.851C18.7637 165.517 18.3613 167.042 17.5566 168.426C16.7377 169.795 15.6505 170.889 14.2952 171.708C12.9398 172.513 11.4079 172.929 9.69953 172.958ZM10.0807 147.968L7.05228 148.01L7.00992 167.663H9.69953C10.7725 167.663 11.6761 167.289 12.4103 166.541C13.1445 165.792 13.5116 164.896 13.5116 163.851V151.356C13.5116 150.438 13.1727 149.641 12.495 148.963C11.8173 148.271 11.0126 147.939 10.0807 147.968ZM27.2984 173H22.3852C22.244 173 22.1734 172.929 22.1734 172.788L22.2157 142.991C22.2157 142.878 22.2722 142.821 22.3852 142.821H27.2561C27.369 142.821 27.4255 142.878 27.4255 142.991L27.4679 172.788C27.4679 172.929 27.4114 173 27.2984 173ZM38.6499 173.424C37.1109 173.424 35.692 173.028 34.3931 172.238C33.1083 171.447 32.0776 170.395 31.3011 169.082C30.5387 167.755 30.1575 166.301 30.1575 164.719V162.729C30.1575 162.573 30.2281 162.496 30.3693 162.496H35.2402C35.3531 162.496 35.4096 162.573 35.4096 162.729V164.719C35.4096 165.665 35.7273 166.484 36.3626 167.176C36.998 167.854 37.7604 168.193 38.6499 168.193C39.5535 168.193 40.3229 167.847 40.9583 167.155C41.5936 166.449 41.9113 165.637 41.9113 164.719C41.9113 163.66 41.2195 162.736 39.8358 161.945C39.6099 161.804 39.3134 161.634 38.9464 161.437C38.5934 161.225 38.1698 160.985 37.6757 160.717C37.1815 160.449 36.7015 160.187 36.2356 159.933C35.7697 159.665 35.3179 159.411 34.8802 159.171C33.2989 158.239 32.12 157.074 31.3434 155.676C30.581 154.265 30.1998 152.683 30.1998 150.933C30.1998 149.323 30.5952 147.869 31.3858 146.57C32.1764 145.285 33.2071 144.269 34.4778 143.52C35.7626 142.758 37.1533 142.377 38.6499 142.377C40.1888 142.377 41.6007 142.758 42.8855 143.52C44.1703 144.297 45.1939 145.327 45.9563 146.612C46.7328 147.897 47.1211 149.337 47.1211 150.933V154.49C47.1211 154.603 47.0646 154.66 46.9516 154.66H42.0807C41.9677 154.66 41.9113 154.603 41.9113 154.49L41.8689 150.933C41.8689 149.916 41.5512 149.09 40.9159 148.455C40.2806 147.819 39.5252 147.502 38.6499 147.502C37.7604 147.502 36.998 147.841 36.3626 148.518C35.7273 149.196 35.4096 150.001 35.4096 150.933C35.4096 151.878 35.6073 152.669 36.0026 153.304C36.4121 153.94 37.1533 154.547 38.2263 155.126C38.3392 155.182 38.6004 155.323 39.0099 155.549C39.4193 155.775 39.8711 156.029 40.3653 156.312C40.8735 156.58 41.3324 156.827 41.7418 157.053C42.1513 157.265 42.3984 157.392 42.4831 157.434C43.9232 158.239 45.0597 159.227 45.8927 160.399C46.7399 161.571 47.1634 163.011 47.1634 164.719C47.1634 166.371 46.7822 167.854 46.0198 169.167C45.2433 170.48 44.2126 171.518 42.9278 172.28C41.643 173.042 40.217 173.424 38.6499 173.424ZM55.2534 173H50.3825C50.2413 173 50.1707 172.929 50.1707 172.788L50.2554 142.991C50.2554 142.878 50.3119 142.821 50.4248 142.821H58.769C61.4233 142.821 63.5199 143.633 65.0588 145.257C66.6119 146.866 67.3884 149.062 67.3884 151.843C67.3884 153.876 66.986 155.648 66.1813 157.159C65.3624 158.655 64.3035 159.813 63.0046 160.632C61.7056 161.451 60.2938 161.86 58.769 161.86H55.4652V172.788C55.4652 172.929 55.3946 173 55.2534 173ZM58.769 147.968L55.4652 148.01V156.608H58.769C59.6867 156.608 60.4844 156.171 61.1621 155.295C61.8398 154.406 62.1786 153.255 62.1786 151.843C62.1786 150.714 61.8751 149.789 61.268 149.069C60.6609 148.335 59.8279 147.968 58.769 147.968ZM68.8709 172.788L74.2501 142.991C74.2783 142.878 74.3489 142.821 74.4619 142.821H80.7517C80.8647 142.821 80.9353 142.878 80.9635 142.991L86.1309 172.788C86.1451 172.929 86.0886 173 85.9615 173H81.1541C81.0129 173 80.9353 172.929 80.9212 172.788L80.4552 169.612H74.5466L74.0807 172.788C74.0665 172.929 73.996 173 73.8689 173H69.0403C68.9273 173 68.8709 172.929 68.8709 172.788ZM77.808 152.796L77.5539 151.187L77.3633 152.796L75.4149 164.974H79.5869L77.808 152.796ZM98.0965 173H93.2044C93.0773 173 93.0138 172.929 93.0138 172.788V148.052H87.3804C87.2393 148.052 87.1687 147.982 87.1687 147.841L87.211 142.991C87.211 142.878 87.2675 142.821 87.3804 142.821H103.857C104.012 142.821 104.09 142.878 104.09 142.991V147.841C104.09 147.982 104.033 148.052 103.92 148.052H98.2236L98.2659 172.788C98.2659 172.929 98.2095 173 98.0965 173ZM114.192 173.424C112.625 173.424 111.192 173.028 109.893 172.238C108.608 171.447 107.584 170.388 106.822 169.061C106.074 167.72 105.699 166.23 105.699 164.592L105.742 151.06C105.742 149.45 106.109 147.996 106.843 146.697C107.577 145.384 108.587 144.332 109.871 143.541C111.17 142.737 112.611 142.334 114.192 142.334C115.801 142.334 117.234 142.723 118.491 143.499C119.762 144.276 120.771 145.327 121.519 146.655C122.282 147.968 122.663 149.436 122.663 151.06V153.05C122.663 153.163 122.607 153.22 122.494 153.22H117.623C117.51 153.22 117.453 153.163 117.453 153.05V151.06C117.453 150.1 117.143 149.274 116.521 148.582C115.9 147.89 115.124 147.544 114.192 147.544C113.161 147.544 112.37 147.897 111.82 148.603C111.269 149.309 110.994 150.128 110.994 151.06V164.592C110.994 165.651 111.305 166.52 111.926 167.197C112.547 167.861 113.302 168.193 114.192 168.193C115.124 168.193 115.9 167.826 116.521 167.091C117.143 166.343 117.453 165.51 117.453 164.592V162.58C117.453 162.467 117.51 162.411 117.623 162.411H122.536C122.649 162.411 122.705 162.467 122.705 162.58V164.592C122.705 166.216 122.324 167.698 121.562 169.04C120.785 170.367 119.762 171.433 118.491 172.238C117.22 173.028 115.787 173.424 114.192 173.424ZM130.944 173H126.03C125.917 173 125.861 172.929 125.861 172.788L125.903 142.991C125.903 142.878 125.974 142.821 126.115 142.821H130.944C131.085 142.821 131.155 142.878 131.155 142.991L131.113 154.787H137.615V142.991C137.615 142.878 137.671 142.821 137.784 142.821H142.613C142.754 142.821 142.824 142.878 142.824 142.991L142.909 172.788C142.909 172.929 142.839 173 142.697 173H137.826C137.685 173 137.615 172.929 137.615 172.788V160.039H131.113V172.788C131.113 172.929 131.057 173 130.944 173ZM160.635 173H146.615C146.502 173 146.446 172.929 146.446 172.788L146.488 142.991C146.488 142.878 146.545 142.821 146.658 142.821H160.593C160.706 142.821 160.762 142.892 160.762 143.033V147.883C160.762 147.996 160.706 148.052 160.593 148.052H151.698V154.829H160.593C160.706 154.829 160.762 154.886 160.762 154.999L160.805 159.912C160.805 160.025 160.748 160.081 160.635 160.081H151.698V167.663H160.635C160.748 167.663 160.805 167.734 160.805 167.875V172.831C160.805 172.944 160.748 173 160.635 173ZM172.643 172.958L164.871 173C164.73 173 164.659 172.929 164.659 172.788L164.744 142.991C164.744 142.878 164.8 142.821 164.913 142.821L173.024 142.779C174.634 142.737 176.088 143.104 177.387 143.88C178.7 144.657 179.745 145.709 180.521 147.036C181.312 148.349 181.707 149.803 181.707 151.398V163.851C181.707 165.517 181.305 167.042 180.5 168.426C179.681 169.795 178.594 170.889 177.239 171.708C175.883 172.513 174.351 172.929 172.643 172.958ZM173.024 147.968L169.996 148.01L169.953 167.663H172.643C173.716 167.663 174.62 167.289 175.354 166.541C176.088 165.792 176.455 164.896 176.455 163.851V151.356C176.455 150.438 176.116 149.641 175.439 148.963C174.761 148.271 173.956 147.939 173.024 147.968Z" fill="#38AE52" />
</svg>
