<svg width="300" height="300" viewBox="0 0 610 513" fill="none" xmlns="http://www.w3.org/2000/svg">
	<path d="M606.509 350.7C589.867 266.78 492.37 199.713 473.353 112.259C438.791 1.00022 324.873 -16.5898 250.847 31.7302C133.553 108.294 258.681 127.293 28.7046 308.438C-28.0824 353.167 -9.98737 550.608 168.659 505.3C264.799 480.915 294.026 477.493 337.27 473.478C446.269 463.354 634.444 491.568 606.509 350.7Z" fill="white" />
	<path d="M496 493.487L122.7 493.794C107.884 493.807 97.8636 483.806 97.8506 468.994L97.6246 235.262L520.582 234.91L520.808 468.642C520.812 483.454 510.812 493.475 496 493.487Z" fill="#239CFB" />
	<path d="M122.663 494.794C115.135 494.794 108.686 492.328 104.01 487.66C99.3336 482.992 96.8496 476.531 96.8426 468.991L96.6156 234.26H97.6156L521.572 233.907L521.8 468.639C521.813 484.087 511.443 494.475 496 494.488L122.7 494.795L122.663 494.794ZM98.6176 236.258L98.8426 468.989C98.8486 475.989 101.124 481.954 105.422 486.245C109.72 490.536 115.676 492.794 122.663 492.794H122.691L495.991 492.487C510.241 492.475 519.808 482.887 519.791 468.64L519.565 235.908L98.6176 236.258Z" fill="#292A2E" />
	<path d="M520.837 233.257L319.136 80.1933C316.206 77.9802 312.634 76.7842 308.963 76.7873C305.291 76.7904 301.721 77.9923 298.796 80.2102L97.3506 233.609C97.0904 233.807 96.8851 234.069 96.7545 234.369C96.6238 234.669 96.5721 234.997 96.6043 235.322C96.6365 235.648 96.7515 235.96 96.9383 236.228C97.1251 236.497 97.3776 236.713 97.6716 236.856L289.13 330.2C294.716 333.012 300.861 334.537 307.114 334.663C313.366 334.789 319.568 333.512 325.263 330.927C325.463 330.836 325.663 330.743 325.863 330.65L520.517 236.511C520.812 236.369 521.066 236.153 521.254 235.884C521.442 235.615 521.558 235.303 521.591 234.976C521.623 234.65 521.571 234.32 521.44 234.02C521.309 233.719 521.102 233.457 520.841 233.259L520.837 233.257Z" fill="#0778D0" />
	<path d="M394.627 162.641C401.775 194.297 411.562 214.663 406.689 226.359C404.127 232.508 398.869 237.659 390.166 237.659C376.599 237.659 376.599 221.659 363.031 221.659C349.463 221.659 349.466 237.659 335.9 237.659C322.334 237.659 322.335 221.659 308.77 221.659C295.205 221.659 295.205 237.659 281.64 237.659C268.075 237.659 268.075 221.659 254.51 221.659C240.945 221.659 240.947 237.659 227.383 237.659C219.33 237.659 214.778 232.916 211.891 227.436C204.953 214.268 221.123 185.292 227.383 159.742C234.301 131.507 233.718 96.3422 234.646 75.1292C236.437 34.2302 267.837 1.00024 308.779 1.00024C349.721 1.00024 379.93 34.3002 382.912 75.1332C384.52 97.1472 388.084 133.663 394.627 162.641Z" fill="white" />
	<path d="M390.166 238.663C382.919 238.663 379.318 234.417 375.836 230.31C372.501 226.377 369.352 222.663 363.031 222.663C356.71 222.663 353.563 226.377 350.231 230.31C346.748 234.416 343.148 238.663 335.902 238.663C328.656 238.663 325.056 234.417 321.574 230.31C318.24 226.377 315.091 222.663 308.774 222.663C302.457 222.663 299.306 226.377 295.974 230.31C292.492 234.416 288.892 238.663 281.646 238.663C274.4 238.663 270.8 234.417 267.318 230.31C263.984 226.377 260.835 222.663 254.518 222.663C248.201 222.663 245.051 226.377 241.718 230.31C238.236 234.416 234.637 238.663 227.391 238.663C220.185 238.663 214.828 235.145 211.014 227.905C206.177 218.725 211.987 202.492 218.138 185.305C221.33 176.85 224.094 168.239 226.42 159.505C231.952 136.925 232.652 110.392 233.214 89.0712C233.347 84.0282 233.472 79.2652 233.656 75.0872C234.386 55.2038 242.463 36.2975 256.326 22.0242C263.151 15.0308 271.31 9.47815 280.32 5.69509C289.329 1.91203 299.007 -0.0244869 308.779 0.000233724C318.489 -0.0231066 328.104 1.91903 337.044 5.70971C345.985 9.50038 354.065 15.0612 360.8 22.0572C374.216 35.8702 382.424 54.6942 383.911 75.0572C385.346 94.6932 388.771 132.157 395.605 162.418C397.922 172.683 400.517 181.75 402.805 189.75C407.584 206.455 411.037 218.524 407.613 226.741C405.757 231.2 401.025 238.663 390.166 238.663ZM363.031 220.663C370.278 220.663 373.879 224.909 377.361 229.017C380.696 232.949 383.846 236.663 390.166 236.663C399.866 236.663 404.103 229.963 405.766 225.975C408.92 218.404 405.547 206.617 400.88 190.303C398.58 182.277 395.98 173.182 393.651 162.862C386.789 132.47 383.351 94.8972 381.915 75.2062C378.866 33.4722 347.425 2.00023 308.779 2.00023C269.566 2.00023 237.442 34.1432 235.646 75.1772C235.464 79.3372 235.338 84.0922 235.205 89.1262C234.671 109.412 233.938 137.194 228.355 159.983C226.013 168.785 223.229 177.462 220.013 185.983C214.013 202.741 208.348 218.571 212.776 226.975C216.211 233.494 220.989 236.664 227.383 236.664C233.702 236.664 236.851 232.95 240.183 229.018C243.665 224.91 247.264 220.664 254.509 220.664C261.754 220.664 265.355 224.91 268.837 229.018C272.171 232.95 275.319 236.664 281.637 236.664C287.955 236.664 291.106 232.949 294.437 229.018C297.918 224.91 301.519 220.664 308.764 220.664C316.009 220.664 319.61 224.911 323.092 229.018C326.426 232.95 329.574 236.664 335.892 236.664C342.21 236.664 345.361 232.949 348.692 229.018C352.185 224.909 355.785 220.663 363.031 220.663Z" fill="#292A2E" />
	<path d="M280.922 79.9162C285.46 79.9162 289.139 76.2374 289.139 71.6992C289.139 67.1611 285.46 63.4822 280.922 63.4822C276.384 63.4822 272.705 67.1611 272.705 71.6992C272.705 76.2374 276.384 79.9162 280.922 79.9162Z" fill="#292A2E" />
	<path d="M337.27 79.9162C341.808 79.9162 345.487 76.2374 345.487 71.6992C345.487 67.1611 341.808 63.4822 337.27 63.4822C332.731 63.4822 329.053 67.1611 329.053 71.6992C329.053 76.2374 332.731 79.9162 337.27 79.9162Z" fill="#292A2E" />
	<path d="M323.811 93.8772C324.285 93.8759 324.754 93.9804 325.182 94.183C325.611 94.3857 325.989 94.6814 326.289 95.0487C326.59 95.4159 326.804 95.8455 326.917 96.3061C327.03 96.7667 327.039 97.2467 326.944 97.7112C325.183 105.951 317.861 111.129 309.096 111.129C300.331 111.129 293.009 105.951 291.247 97.7112C291.151 97.2466 291.16 96.7666 291.274 96.306C291.387 95.8454 291.601 95.4159 291.902 95.0487C292.202 94.6814 292.58 94.3857 293.009 94.1831C293.438 93.9805 293.906 93.876 294.381 93.8772H323.811Z" fill="white" />
	<path d="M309.1 112.129C299.656 112.129 292.09 106.419 290.273 97.9202C290.143 97.3146 290.151 96.6876 290.296 96.0854C290.441 95.4833 290.719 94.9214 291.111 94.4412C291.504 93.952 292.003 93.5574 292.57 93.2867C293.136 93.016 293.757 92.8761 294.385 92.8772H323.815C324.443 92.8766 325.063 93.0167 325.629 93.2874C326.196 93.5581 326.695 93.9524 327.089 94.4412C327.48 94.9214 327.758 95.4834 327.903 96.0855C328.048 96.6876 328.055 97.3146 327.926 97.9202C326.106 106.419 318.539 112.129 309.1 112.129ZM294.381 94.8772C294.051 94.8769 293.725 94.9506 293.427 95.0928C293.13 95.2351 292.868 95.4423 292.661 95.6992C292.458 95.9477 292.314 96.2383 292.239 96.5498C292.163 96.8612 292.158 97.1857 292.225 97.4992C293.839 105.052 300.619 110.126 309.096 110.126C317.573 110.126 324.352 105.052 325.967 97.4992C326.033 97.1855 326.028 96.861 325.952 96.5495C325.876 96.238 325.732 95.9474 325.529 95.6992C325.322 95.4422 325.061 95.2349 324.763 95.0927C324.466 94.9504 324.14 94.8768 323.811 94.8772H294.381Z" fill="#292A2E" />
	<path d="M513 487.669C512.83 487.669 512.663 487.626 512.514 487.544C512.366 487.461 512.241 487.342 512.151 487.198L471.882 422.716C471.812 422.605 471.765 422.48 471.744 422.351C471.722 422.221 471.726 422.088 471.756 421.96C471.786 421.832 471.841 421.711 471.917 421.604C471.994 421.497 472.091 421.406 472.202 421.337C472.314 421.267 472.438 421.22 472.568 421.199C472.697 421.177 472.83 421.182 472.958 421.211C473.086 421.241 473.207 421.296 473.314 421.372C473.421 421.449 473.512 421.546 473.582 421.657L513.851 486.14C513.945 486.292 513.997 486.465 514.002 486.644C514.006 486.822 513.963 486.998 513.877 487.154C513.79 487.31 513.663 487.44 513.51 487.531C513.356 487.621 513.181 487.669 513.003 487.669H513Z" fill="#292A2E" />
	<path d="M424.7 494.573C424.446 494.573 424.203 494.476 424.018 494.302C423.833 494.129 423.721 493.892 423.705 493.639C423.688 493.386 423.768 493.136 423.928 492.94C424.089 492.744 424.318 492.616 424.569 492.582C424.744 492.559 442.147 490.115 448.953 478.733C452.434 472.914 452.589 465.689 449.415 457.26C449.342 457.067 449.33 456.857 449.382 456.657C449.433 456.458 449.545 456.279 449.702 456.146C449.859 456.012 450.054 455.93 450.259 455.911C450.464 455.893 450.67 455.938 450.849 456.04C450.989 456.12 464.927 464.003 473.476 458.652C478.744 455.352 481.006 447.673 480.195 435.815C480.182 435.637 480.218 435.458 480.299 435.298C480.379 435.138 480.501 435.002 480.652 434.905C480.803 434.809 480.977 434.754 481.156 434.748C481.335 434.741 481.512 434.783 481.67 434.868C481.823 434.95 497.231 443.157 508.709 438.268C514.067 435.98 517.794 431.146 519.784 423.898C519.815 423.768 519.873 423.646 519.953 423.539C520.033 423.432 520.133 423.342 520.248 423.274C520.363 423.207 520.491 423.163 520.623 423.145C520.756 423.128 520.891 423.137 521.019 423.172C521.148 423.207 521.269 423.268 521.374 423.351C521.479 423.434 521.566 423.537 521.63 423.654C521.695 423.771 521.735 423.899 521.749 424.032C521.763 424.165 521.75 424.299 521.712 424.427C519.552 432.296 515.439 437.572 509.487 440.109C499.232 444.482 486.666 439.461 482.287 437.409C482.808 449.094 480.201 456.809 474.529 460.354C467.087 465.007 456.655 461.07 452.104 458.93C454.62 466.963 454.139 473.964 450.663 479.77C443.353 491.981 425.584 494.47 424.831 494.57C424.787 494.574 424.743 494.575 424.7 494.573Z" fill="#292A2E" />
	<path d="M470.743 494.577C470.594 494.577 470.499 494.577 470.471 494.577C470.206 494.566 469.957 494.451 469.777 494.257C469.598 494.062 469.503 493.805 469.513 493.54C469.515 493.408 469.543 493.278 469.597 493.157C469.651 493.037 469.728 492.928 469.825 492.838C469.922 492.748 470.036 492.679 470.16 492.635C470.285 492.59 470.417 492.571 470.549 492.579C470.607 492.587 476.288 492.746 478.865 489.163C480.651 486.682 480.611 482.916 478.749 477.97C478.679 477.784 478.666 477.582 478.711 477.388C478.757 477.195 478.859 477.02 479.005 476.884C479.15 476.749 479.333 476.661 479.529 476.63C479.725 476.599 479.926 476.627 480.107 476.711C480.207 476.756 490.096 481.287 495.47 477.594C498.151 475.753 499.322 472.067 498.951 466.638C498.939 466.465 498.972 466.291 499.047 466.135C499.123 465.979 499.238 465.844 499.381 465.746C499.524 465.647 499.69 465.588 499.863 465.573C500.036 465.558 500.21 465.588 500.368 465.661C500.468 465.705 509.849 469.961 515.494 466.605C518.064 465.079 519.513 462.128 519.802 457.833C519.81 457.702 519.845 457.574 519.904 457.456C519.962 457.338 520.043 457.232 520.142 457.146C520.241 457.059 520.357 456.993 520.481 456.951C520.606 456.909 520.738 456.892 520.869 456.901C521 456.91 521.129 456.944 521.247 457.003C521.365 457.061 521.47 457.142 521.556 457.241C521.643 457.34 521.709 457.456 521.751 457.58C521.793 457.705 521.81 457.837 521.802 457.968C521.465 462.96 519.687 466.445 516.515 468.327C511.377 471.375 504.115 469.242 501.015 468.084C501.099 473.424 499.615 477.175 496.598 479.245C491.884 482.479 484.798 480.601 481.324 479.353C482.689 483.983 482.408 487.672 480.482 490.341C477.6 494.333 472.051 494.577 470.743 494.577Z" fill="#292A2E" />
	<path d="M501.472 493.992C501.265 493.992 501.064 493.929 500.896 493.81L438.496 449.766C438.279 449.613 438.132 449.38 438.087 449.119C438.041 448.857 438.102 448.589 438.255 448.372C438.408 448.155 438.641 448.008 438.903 447.963C439.164 447.918 439.433 447.978 439.65 448.131L502.05 492.175C502.223 492.298 502.353 492.472 502.421 492.674C502.489 492.875 502.49 493.093 502.426 493.295C502.362 493.498 502.234 493.675 502.063 493.8C501.891 493.925 501.684 493.993 501.472 493.992Z" fill="#292A2E" />
	<path d="M236.949 392.364V412H234.648L223.947 396.582H223.756V412H221.378V392.364H223.679L234.418 407.82H234.609V392.364H236.949ZM247.383 412.307C246.054 412.307 244.887 411.99 243.883 411.358C242.886 410.725 242.106 409.839 241.544 408.702C240.988 407.564 240.71 406.234 240.71 404.713C240.71 403.179 240.988 401.84 241.544 400.696C242.106 399.551 242.886 398.663 243.883 398.03C244.887 397.397 246.054 397.081 247.383 397.081C248.713 397.081 249.876 397.397 250.873 398.03C251.877 398.663 252.657 399.551 253.213 400.696C253.775 401.84 254.056 403.179 254.056 404.713C254.056 406.234 253.775 407.564 253.213 408.702C252.657 409.839 251.877 410.725 250.873 411.358C249.876 411.99 248.713 412.307 247.383 412.307ZM247.383 410.274C248.393 410.274 249.224 410.015 249.876 409.498C250.528 408.98 251.011 408.299 251.324 407.455C251.637 406.612 251.794 405.697 251.794 404.713C251.794 403.729 251.637 402.811 251.324 401.961C251.011 401.111 250.528 400.424 249.876 399.9C249.224 399.376 248.393 399.114 247.383 399.114C246.373 399.114 245.542 399.376 244.89 399.9C244.238 400.424 243.756 401.111 243.442 401.961C243.129 402.811 242.973 403.729 242.973 404.713C242.973 405.697 243.129 406.612 243.442 407.455C243.756 408.299 244.238 408.98 244.89 409.498C245.542 410.015 246.373 410.274 247.383 410.274ZM280.982 392.364V412H278.681L267.981 396.582H267.789V412H265.411V392.364H267.712L278.451 407.82H278.643V392.364H280.982ZM291.416 412.307C290.087 412.307 288.92 411.99 287.917 411.358C286.919 410.725 286.14 409.839 285.577 408.702C285.021 407.564 284.743 406.234 284.743 404.713C284.743 403.179 285.021 401.84 285.577 400.696C286.14 399.551 286.919 398.663 287.917 398.03C288.92 397.397 290.087 397.081 291.416 397.081C292.746 397.081 293.909 397.397 294.906 398.03C295.91 398.663 296.69 399.551 297.246 400.696C297.808 401.84 298.09 403.179 298.09 404.713C298.09 406.234 297.808 407.564 297.246 408.702C296.69 409.839 295.91 410.725 294.906 411.358C293.909 411.99 292.746 412.307 291.416 412.307ZM291.416 410.274C292.426 410.274 293.257 410.015 293.909 409.498C294.561 408.98 295.044 408.299 295.357 407.455C295.67 406.612 295.827 405.697 295.827 404.713C295.827 403.729 295.67 402.811 295.357 401.961C295.044 401.111 294.561 400.424 293.909 399.9C293.257 399.376 292.426 399.114 291.416 399.114C290.406 399.114 289.575 399.376 288.923 399.9C288.271 400.424 287.789 401.111 287.476 401.961C287.162 402.811 287.006 403.729 287.006 404.713C287.006 405.697 287.162 406.612 287.476 407.455C287.789 408.299 288.271 408.98 288.923 409.498C289.575 410.015 290.406 410.274 291.416 410.274ZM307.949 397.273V399.19H300.316V397.273H307.949ZM302.541 393.744H304.804V407.781C304.804 408.42 304.896 408.9 305.082 409.219C305.273 409.533 305.516 409.744 305.81 409.852C306.111 409.955 306.427 410.006 306.76 410.006C307.009 410.006 307.213 409.993 307.373 409.967C307.533 409.935 307.661 409.91 307.757 409.891L308.217 411.923C308.064 411.981 307.849 412.038 307.575 412.096C307.3 412.16 306.951 412.192 306.529 412.192C305.89 412.192 305.264 412.054 304.65 411.779C304.043 411.505 303.538 411.086 303.135 410.523C302.739 409.961 302.541 409.251 302.541 408.395V393.744ZM311.352 412V397.273H313.615V412H311.352ZM312.503 394.818C312.062 394.818 311.681 394.668 311.362 394.368C311.049 394.067 310.892 393.706 310.892 393.284C310.892 392.862 311.049 392.501 311.362 392.201C311.681 391.9 312.062 391.75 312.503 391.75C312.944 391.75 313.321 391.9 313.634 392.201C313.954 392.501 314.114 392.862 314.114 393.284C314.114 393.706 313.954 394.067 313.634 394.368C313.321 394.668 312.944 394.818 312.503 394.818ZM324.318 397.273V399.19H316.379V397.273H324.318ZM318.757 412V395.24C318.757 394.396 318.955 393.693 319.351 393.131C319.747 392.568 320.262 392.146 320.895 391.865C321.528 391.584 322.196 391.443 322.899 391.443C323.455 391.443 323.909 391.488 324.26 391.577C324.612 391.667 324.874 391.75 325.046 391.827L324.394 393.783C324.279 393.744 324.12 393.696 323.915 393.639C323.717 393.581 323.455 393.553 323.129 393.553C322.381 393.553 321.841 393.741 321.508 394.118C321.182 394.495 321.019 395.048 321.019 395.777V412H318.757ZM327.489 412V397.273H329.752V412H327.489ZM328.64 394.818C328.199 394.818 327.818 394.668 327.499 394.368C327.185 394.067 327.029 393.706 327.029 393.284C327.029 392.862 327.185 392.501 327.499 392.201C327.818 391.9 328.199 391.75 328.64 391.75C329.081 391.75 329.458 391.9 329.771 392.201C330.091 392.501 330.25 392.862 330.25 393.284C330.25 393.706 330.091 394.067 329.771 394.368C329.458 394.668 329.081 394.818 328.64 394.818ZM339.879 412.307C338.498 412.307 337.31 411.981 336.312 411.329C335.315 410.677 334.548 409.779 334.011 408.635C333.474 407.49 333.206 406.183 333.206 404.713C333.206 403.217 333.481 401.897 334.03 400.753C334.587 399.603 335.36 398.705 336.351 398.059C337.348 397.407 338.511 397.081 339.841 397.081C340.876 397.081 341.81 397.273 342.641 397.656C343.472 398.04 344.152 398.577 344.683 399.267C345.213 399.957 345.543 400.763 345.67 401.683H343.408C343.235 401.012 342.851 400.418 342.257 399.9C341.669 399.376 340.876 399.114 339.879 399.114C338.997 399.114 338.224 399.344 337.559 399.804C336.9 400.258 336.386 400.9 336.015 401.731C335.651 402.556 335.469 403.524 335.469 404.636C335.469 405.774 335.648 406.765 336.006 407.609C336.37 408.452 336.881 409.108 337.54 409.574C338.204 410.041 338.984 410.274 339.879 410.274C340.467 410.274 341.001 410.172 341.48 409.967C341.96 409.763 342.366 409.469 342.698 409.085C343.03 408.702 343.267 408.241 343.408 407.705H345.67C345.543 408.574 345.226 409.357 344.721 410.054C344.223 410.744 343.561 411.294 342.736 411.703C341.918 412.105 340.966 412.307 339.879 412.307ZM353.312 412.345C352.379 412.345 351.532 412.169 350.771 411.818C350.011 411.46 349.407 410.945 348.959 410.274C348.512 409.597 348.288 408.778 348.288 407.82C348.288 406.976 348.454 406.292 348.786 405.768C349.119 405.237 349.563 404.822 350.119 404.521C350.675 404.221 351.289 403.997 351.96 403.85C352.638 403.697 353.318 403.575 354.002 403.486C354.897 403.371 355.623 403.284 356.179 403.227C356.741 403.163 357.15 403.058 357.406 402.911C357.668 402.763 357.799 402.508 357.799 402.143V402.067C357.799 401.121 357.54 400.386 357.023 399.862C356.511 399.337 355.735 399.075 354.693 399.075C353.612 399.075 352.766 399.312 352.152 399.785C351.538 400.258 351.107 400.763 350.858 401.3L348.71 400.533C349.093 399.638 349.605 398.941 350.244 398.442C350.889 397.937 351.593 397.586 352.353 397.388C353.12 397.183 353.875 397.081 354.616 397.081C355.089 397.081 355.632 397.138 356.246 397.254C356.866 397.362 357.464 397.589 358.039 397.934C358.621 398.279 359.103 398.8 359.487 399.497C359.87 400.194 360.062 401.127 360.062 402.297V412H357.799V410.006H357.684C357.531 410.325 357.275 410.667 356.917 411.032C356.559 411.396 356.083 411.706 355.489 411.962C354.894 412.217 354.169 412.345 353.312 412.345ZM353.657 410.312C354.552 410.312 355.306 410.137 355.92 409.785C356.54 409.434 357.007 408.98 357.32 408.424C357.639 407.868 357.799 407.283 357.799 406.669V404.598C357.703 404.713 357.492 404.819 357.166 404.914C356.847 405.004 356.476 405.084 356.054 405.154C355.639 405.218 355.233 405.276 354.837 405.327C354.447 405.371 354.13 405.41 353.887 405.442C353.299 405.518 352.75 405.643 352.238 405.816C351.733 405.982 351.324 406.234 351.011 406.573C350.704 406.906 350.551 407.359 350.551 407.935C350.551 408.721 350.842 409.315 351.423 409.718C352.011 410.114 352.756 410.312 353.657 410.312ZM370.597 397.273V399.19H362.965V397.273H370.597ZM365.189 393.744H367.452V407.781C367.452 408.42 367.545 408.9 367.73 409.219C367.922 409.533 368.165 409.744 368.459 409.852C368.759 409.955 369.076 410.006 369.408 410.006C369.657 410.006 369.862 409.993 370.022 409.967C370.181 409.935 370.309 409.91 370.405 409.891L370.865 411.923C370.712 411.981 370.498 412.038 370.223 412.096C369.948 412.16 369.6 412.192 369.178 412.192C368.539 412.192 367.912 412.054 367.299 411.779C366.691 411.505 366.186 411.086 365.784 410.523C365.387 409.961 365.189 409.251 365.189 408.395V393.744ZM374.001 412V397.273H376.263V412H374.001ZM375.151 394.818C374.71 394.818 374.33 394.668 374.01 394.368C373.697 394.067 373.54 393.706 373.54 393.284C373.54 392.862 373.697 392.501 374.01 392.201C374.33 391.9 374.71 391.75 375.151 391.75C375.592 391.75 375.969 391.9 376.283 392.201C376.602 392.501 376.762 392.862 376.762 393.284C376.762 393.706 376.602 394.067 376.283 394.368C375.969 394.668 375.592 394.818 375.151 394.818ZM386.391 412.307C385.061 412.307 383.895 411.99 382.891 411.358C381.894 410.725 381.114 409.839 380.552 408.702C379.996 407.564 379.718 406.234 379.718 404.713C379.718 403.179 379.996 401.84 380.552 400.696C381.114 399.551 381.894 398.663 382.891 398.03C383.895 397.397 385.061 397.081 386.391 397.081C387.72 397.081 388.884 397.397 389.881 398.03C390.884 398.663 391.664 399.551 392.22 400.696C392.783 401.84 393.064 403.179 393.064 404.713C393.064 406.234 392.783 407.564 392.22 408.702C391.664 409.839 390.884 410.725 389.881 411.358C388.884 411.99 387.72 412.307 386.391 412.307ZM386.391 410.274C387.401 410.274 388.232 410.015 388.884 409.498C389.536 408.98 390.018 408.299 390.332 407.455C390.645 406.612 390.801 405.697 390.801 404.713C390.801 403.729 390.645 402.811 390.332 401.961C390.018 401.111 389.536 400.424 388.884 399.9C388.232 399.376 387.401 399.114 386.391 399.114C385.381 399.114 384.55 399.376 383.898 399.9C383.246 400.424 382.763 401.111 382.45 401.961C382.137 402.811 381.98 403.729 381.98 404.713C381.98 405.697 382.137 406.612 382.45 407.455C382.763 408.299 383.246 408.98 383.898 409.498C384.55 410.015 385.381 410.274 386.391 410.274ZM398.781 403.141V412H396.518V397.273H398.704V399.574H398.896C399.241 398.826 399.765 398.225 400.469 397.771C401.172 397.311 402.079 397.081 403.192 397.081C404.189 397.081 405.061 397.286 405.809 397.695C406.557 398.097 407.139 398.711 407.554 399.536C407.97 400.354 408.177 401.389 408.177 402.642V412H405.915V402.795C405.915 401.638 405.614 400.737 405.013 400.092C404.412 399.44 403.588 399.114 402.54 399.114C401.817 399.114 401.172 399.27 400.603 399.583C400.04 399.897 399.596 400.354 399.27 400.955C398.944 401.555 398.781 402.284 398.781 403.141ZM422.744 400.571L420.711 401.146C420.584 400.808 420.395 400.478 420.146 400.159C419.903 399.833 419.57 399.564 419.149 399.353C418.727 399.142 418.187 399.037 417.528 399.037C416.627 399.037 415.876 399.245 415.275 399.66C414.68 400.069 414.383 400.59 414.383 401.223C414.383 401.786 414.588 402.23 414.997 402.556C415.406 402.882 416.045 403.153 416.915 403.371L419.101 403.908C420.417 404.227 421.399 404.716 422.044 405.375C422.69 406.027 423.013 406.867 423.013 407.896C423.013 408.74 422.77 409.494 422.284 410.159C421.804 410.824 421.133 411.348 420.27 411.732C419.407 412.115 418.404 412.307 417.26 412.307C415.758 412.307 414.514 411.981 413.53 411.329C412.546 410.677 411.922 409.724 411.66 408.472L413.808 407.935C414.013 408.727 414.399 409.322 414.968 409.718C415.543 410.114 416.294 410.312 417.221 410.312C418.276 410.312 419.113 410.089 419.733 409.641C420.36 409.187 420.673 408.644 420.673 408.011C420.673 407.5 420.494 407.072 420.136 406.727C419.778 406.375 419.228 406.113 418.487 405.94L416.032 405.365C414.684 405.045 413.693 404.55 413.06 403.879C412.434 403.201 412.12 402.354 412.12 401.338C412.12 400.507 412.354 399.772 412.82 399.133C413.293 398.494 413.936 397.992 414.748 397.627C415.566 397.263 416.493 397.081 417.528 397.081C418.986 397.081 420.13 397.401 420.961 398.04C421.798 398.679 422.392 399.523 422.744 400.571Z" fill="white" />
</svg>
