<svg width="20" height="90" viewBox="0 0 13 78" fill="none" xmlns="http://www.w3.org/2000/svg">
<g clip-path="url(#clip0_714_707)">
<path d="M6.5 13.5386C10.0899 13.5386 13 10.6284 13 7.03857C13 3.44872 10.0899 0.538574 6.5 0.538574C2.91015 0.538574 0 3.44872 0 7.03857C0 10.6284 2.91015 13.5386 6.5 13.5386Z" fill="#005BA2"/>
<path d="M6.5 45.5386C10.0899 45.5386 13 42.6284 13 39.0386C13 35.4487 10.0899 32.5386 6.5 32.5386C2.91015 32.5386 0 35.4487 0 39.0386C0 42.6284 2.91015 45.5386 6.5 45.5386Z" fill="#005BA2"/>
<path d="M6.5 10.5381V36.5381" stroke="#005BA2"/>
</g>
<g clip-path="url(#clip1_714_707)">
<path d="M6.5 45.5386C10.0899 45.5386 13 42.6284 13 39.0386C13 35.4487 10.0899 32.5386 6.5 32.5386C2.91015 32.5386 0 35.4487 0 39.0386C0 42.6284 2.91015 45.5386 6.5 45.5386Z" fill="#005BA2"/>
<path d="M6.5 77.5386C10.0899 77.5386 13 74.6284 13 71.0386C13 67.4487 10.0899 64.5386 6.5 64.5386C2.91015 64.5386 0 67.4487 0 71.0386C0 74.6284 2.91015 77.5386 6.5 77.5386Z" fill="#005BA2"/>
<path d="M6.5 42.5381V68.5381" stroke="#005BA2"/>
</g>
<defs>
<clipPath id="clip0_714_707">
<rect width="13" height="46" fill="white"/>
</clipPath>
<clipPath id="clip1_714_707">
<rect width="13" height="46" fill="white" transform="translate(0 32)"/>
</clipPath>
</defs>
</svg>
