<svg width="103" height="55" viewBox="0 0 103 55" fill="none" xmlns="http://www.w3.org/2000/svg">
    <path d="M51.6717 53.6349C79.3578 53.6349 101.802 41.9933 101.802 27.6326C101.802 13.272 79.3578 1.63037 51.6717 1.63037C23.9855 1.63037 1.5415 13.272 1.5415 27.6326C1.5415 41.9933 23.9855 53.6349 51.6717 53.6349Z" fill="white"/>
    <path d="M51.7612 51.468C78.3102 51.468 99.8325 40.8339 99.8325 27.7159C99.8325 14.598 78.3102 3.96387 51.7612 3.96387C25.2122 3.96387 3.68994 14.598 3.68994 27.7159C3.68994 40.8339 25.2122 51.468 51.7612 51.468Z" fill="#005BA2"/>
    <path d="M18.4606 35.9663L11.1201 20.7983H13.2686C15.4469 24.9932 19.5706 34.1162 20.0719 34.7162C20.5732 35.3163 21.2058 35.1329 21.4147 34.8829L28.3076 20.7983H30.0085L22.9365 35.9663C21.2357 39.0499 19.0872 36.9664 18.4606 35.9663Z" fill="white"/>
    <path d="M18.4606 35.9663L11.1201 20.7983H13.2686C15.4469 24.9932 19.5706 34.1162 20.0719 34.7162C20.5732 35.3163 21.2058 35.1329 21.4147 34.8829L28.3076 20.7983H30.0085L22.9365 35.9663C21.2357 39.0499 19.0872 36.9664 18.4606 35.9663Z" fill="white" fill-opacity="0.2"/>
    <path d="M20.0719 33.3828L14.0742 20.8817H15.9541L20.5195 30.4659C21.0208 31.0659 21.3848 30.7159 21.5042 30.4659L25.8011 20.7983H27.5915L21.5042 33.3828C20.8597 34.3162 20.2809 33.7716 20.0719 33.3828Z" fill="white"/>
    <path d="M20.0719 33.3828L14.0742 20.8817H15.9541L20.5195 30.4659C21.0208 31.0659 21.3848 30.7159 21.5042 30.4659L25.8011 20.7983H27.5915L21.5042 33.3828C20.8597 34.3162 20.2809 33.7716 20.0719 33.3828Z" fill="white" fill-opacity="0.2"/>
    <path d="M25.2637 36.7998L32.3356 21.3818H34.305L27.2331 36.7998H25.2637Z" fill="white"/>
    <path d="M25.2637 36.7998L32.3356 21.3818H34.305L27.2331 36.7998H25.2637Z" fill="white" fill-opacity="0.2"/>
    <path d="M28.1279 36.8005L35.1103 21.4658H36.9007L30.0078 36.8005H28.1279Z" fill="white"/>
    <path d="M28.1279 36.8005L35.1103 21.4658H36.9007L30.0078 36.8005H28.1279Z" fill="white" fill-opacity="0.2"/>
    <path d="M42.0929 27.9658L37.9751 36.7999H40.1235L44.0623 27.9658H42.0929Z" fill="white"/>
    <path d="M42.0929 27.9658L37.9751 36.7999H40.1235L44.0623 27.9658H42.0929Z" fill="white" fill-opacity="0.2"/>
    <path d="M44.9577 27.9658L40.8398 36.7999H42.9883L47.0166 27.9658H44.9577Z" fill="white"/>
    <path d="M44.9577 27.9658L40.8398 36.7999H42.9883L47.0166 27.9658H44.9577Z" fill="white" fill-opacity="0.2"/>
    <path d="M39.1392 25.1696C39.1392 25.8857 39.7003 26.466 40.3924 26.466H49.8813C50.5735 26.466 51.1346 25.8857 51.1346 25.1696C51.1346 24.4537 50.5735 23.9658 49.8813 23.9658H40.3924C39.7003 23.9658 39.1392 24.4537 39.1392 25.1696Z" fill="white"/>
    <path d="M40.0342 21.4658C38.3532 21.4658 36.543 22.9845 36.543 24.5494V26.7996H38.4229V24.7161C38.6377 23.6493 39.527 23.3271 39.9447 23.2993C42.7496 23.3271 48.7174 23.366 50.1497 23.2993C51.582 23.2326 51.9997 24.2161 52.0296 24.7161V26.7163H53.82V24.4661C53.82 22.9434 52.2706 21.4658 50.7764 21.4658H40.0342Z" fill="white"/>
    <path d="M40.0342 21.4658C38.3532 21.4658 36.543 22.9845 36.543 24.5494V26.7996H38.4229V24.7161C38.6377 23.6493 39.527 23.3271 39.9447 23.2993C42.7496 23.3271 48.7174 23.366 50.1497 23.2993C51.582 23.2326 51.9997 24.2161 52.0296 24.7161V26.7163H53.82V24.4661C53.82 22.9434 52.2706 21.4658 50.7764 21.4658H40.0342Z" fill="white" fill-opacity="0.2"/>
    <path d="M87.3492 45.8561L87.8156 46.7406L87.8156 46.7406L87.3492 45.8561ZM15.9942 45.8561L15.5277 46.7406L15.5278 46.7406L15.9942 45.8561ZM15.9942 9.40922L15.5278 8.52467L15.5277 8.52468L15.9942 9.40922ZM87.3492 9.40922L87.8156 8.52468L87.8156 8.52467L87.3492 9.40922ZM100.802 27.6326C100.802 34.0165 95.8662 40.2341 86.8827 44.9715L87.8156 46.7406C97.0505 41.8706 102.802 35.1253 102.802 27.6326H100.802ZM86.8827 44.9715C77.9765 49.6681 65.5315 52.6349 51.6717 52.6349V54.6349C65.7899 54.6349 78.5682 51.6172 87.8156 46.7406L86.8827 44.9715ZM51.6717 52.6349C37.8119 52.6349 25.3668 49.6681 16.4607 44.9715L15.5278 46.7406C24.7752 51.6172 37.5534 54.6349 51.6717 54.6349V52.6349ZM16.4607 44.9715C7.4772 40.2341 2.5415 34.0165 2.5415 27.6326H0.541504C0.541504 35.1253 6.29288 41.8706 15.5277 46.7406L16.4607 44.9715ZM2.5415 27.6326C2.5415 21.2488 7.4772 15.0312 16.4607 10.2938L15.5277 8.52468C6.29288 13.3947 0.541504 20.14 0.541504 27.6326H2.5415ZM16.4607 10.2938C25.3668 5.59714 37.8119 2.63037 51.6717 2.63037V0.630371C37.5534 0.630371 24.7752 3.64809 15.5278 8.52467L16.4607 10.2938ZM51.6717 2.63037C65.5315 2.63037 77.9765 5.59714 86.8827 10.2938L87.8156 8.52467C78.5682 3.64809 65.7899 0.630371 51.6717 0.630371V2.63037ZM86.8827 10.2938C95.8662 15.0312 100.802 21.2488 100.802 27.6326H102.802C102.802 20.14 97.0505 13.3947 87.8156 8.52468L86.8827 10.2938Z" fill="#005BA2"/>
    <path d="M88.6315 17.9106V21.4656H87.8475V17.9106H88.6315ZM89.8065 17.9106V18.4844H86.6909V17.9106H89.8065ZM90.6143 17.9106H91.2803L92.2613 20.5207L93.242 17.9106H93.9082L92.5288 21.4656H91.9938L90.6143 17.9106ZM90.255 17.9106H90.9185L91.0392 20.4549V21.4656H90.255V17.9106ZM93.604 17.9106H94.2702V21.4656H93.4834V20.4549L93.604 17.9106Z" fill="white"/>
    <path d="M59.4236 21.7988H70.308L69.3598 23.7157C69.3598 23.7157 64.0879 23.7157 61.0443 23.799C59.0749 23.7157 59.0749 24.2157 58.6273 24.6324C58.1797 25.0491 55.9417 30.7329 55.2256 32.7998C54.5094 34.8666 55.9716 34.9388 56.6579 34.9666H64.4459L63.6306 36.9668L55.5749 36.8835C52.0292 36.8835 52.6304 33.0776 53.1676 31.9664L56.6579 23.9657C57.5889 21.8988 58.7601 21.8822 59.4236 21.7988Z" fill="white"/>
    <path d="M59.4236 21.7988H70.308L69.3598 23.7157C69.3598 23.7157 64.0879 23.7157 61.0443 23.799C59.0749 23.7157 59.0749 24.2157 58.6273 24.6324C58.1797 25.0491 55.9417 30.7329 55.2256 32.7998C54.5094 34.8666 55.9716 34.9388 56.6579 34.9666H64.4459L63.6306 36.9668L55.5749 36.8835C52.0292 36.8835 52.6304 33.0776 53.1676 31.9664L56.6579 23.9657C57.5889 21.8988 58.7601 21.8822 59.4236 21.7988Z" fill="white" fill-opacity="0.2"/>
    <path d="M65.5202 31.7998L64.6064 34.1333H57.6437C55.9249 34.3333 55.6861 33.1797 56.042 32.2165C56.6579 30.5497 58.1704 26.6515 58.7179 25.6326C59.3447 24.4658 60.6862 24.5492 61.0443 24.5492H69.0125L68.2068 26.966H61.9405C61.4034 26.966 60.3292 26.8827 60.2397 27.5494C59.7921 28.5495 59.4299 29.4758 59.255 29.883C59.0958 30.2533 58.3607 31.7998 59.1655 31.7998H59.7026H65.5202Z" fill="white"/>
    <path d="M65.5202 31.7998L64.6064 34.1333H57.6437C55.9249 34.3333 55.6861 33.1797 56.042 32.2165C56.6579 30.5497 58.1704 26.6515 58.7179 25.6326C59.3447 24.4658 60.6862 24.5492 61.0443 24.5492H69.0125L68.2068 26.966H61.9405C61.4034 26.966 60.3292 26.8827 60.2397 27.5494C59.7921 28.5495 59.4299 29.4758 59.255 29.883C59.0958 30.2533 58.3607 31.7998 59.1655 31.7998H59.7026H65.5202Z" fill="white" fill-opacity="0.2"/>
    <path d="M85.9924 22.2305L74.6315 22.1323C74.0464 22.1323 73.2828 22.504 73.0125 23.0874L68.3727 32.8863C67.4777 34.7198 67.2835 37.422 70.1477 37.5887C73.7655 37.6325 81.2184 37.672 82.2454 37.672C83.2723 37.672 84.0366 36.5817 84.2916 36.0052C84.9182 34.5884 87.7652 28.0447 88.165 27.0833C89.2393 24.4997 89.8417 22.2305 85.9924 22.2305Z" fill="white"/>
    <path d="M85.7418 24.5039H75.3186C75.0041 24.5039 74.7943 24.8284 74.7285 24.9908L70.5004 33.7525C70.0285 35.1545 70.6315 35.44 70.9921 35.4075C74.0403 35.44 80.3532 35.5049 81.2186 35.5049C82.0839 35.5049 82.5625 34.9857 82.6935 34.7261C83.7095 32.5194 85.8795 27.775 86.43 26.4511C86.9807 25.127 86.2007 24.6012 85.7418 24.5039Z" fill="#005BA2"/>
    <path d="M84.3463 25.1323H76.0211C75.7524 25.1323 75.2864 25.6625 75.2303 25.8027L71.5143 33.2863C71.1111 34.4971 71.6262 34.7438 71.9341 34.7156C74.5375 34.7438 79.9288 34.7998 80.6677 34.7998C81.4067 34.7998 81.8155 34.3514 81.9274 34.1272C82.7952 32.2214 85.2361 27.2906 85.7065 26.147C86.1766 25.0036 84.7044 25.1323 84.3463 25.1323Z" fill="white"/>
    <path d="M83.1885 26.6709H77.006C76.8021 26.6709 76.5115 26.9509 76.4691 27.0493L73.7277 32.3594C73.4217 33.2091 74.1762 33.3195 74.41 33.2998C76.3864 33.3195 79.1307 33.2998 79.6916 33.2998C80.2527 33.2998 80.6809 32.9571 80.7658 32.7998C81.4247 31.4623 82.8315 28.5871 83.1885 27.7847C83.5455 26.9821 83.4861 26.7299 83.1885 26.6709Z" fill="#005BA2"/>
    </svg>
    