<svg width="313" height="100" viewBox="0 0 313 100" fill="none" xmlns="http://www.w3.org/2000/svg">
	<path d="M310 100H3C2.20435 100 1.44152 99.6837 0.878906 99.1211C0.316297 98.5585 0 97.7956 0 97V58C2.12173 58 4.15596 57.157 5.65625 55.6567C7.15654 54.1564 8 52.1217 8 50C8 47.8783 7.15654 45.8436 5.65625 44.3433C4.15596 42.843 2.12173 42 0 42V3C0 2.20435 0.316297 1.44152 0.878906 0.878906C1.44152 0.316297 2.20435 0 3 0H220.268C220.093 0.30408 220.002 0.648685 220.002 0.999512C220.002 1.35034 220.094 1.69484 220.27 1.99854C220.445 2.30223 220.698 2.55468 221.002 2.72998C221.306 2.90528 221.651 2.99756 222.002 2.99756C222.353 2.99756 222.696 2.90528 223 2.72998C223.304 2.55468 223.557 2.30223 223.732 1.99854C223.908 1.69484 224.002 1.35034 224.002 0.999512C224.002 0.648685 223.909 0.30408 223.734 0H310C310.796 0 311.558 0.316297 312.121 0.878906C312.684 1.44152 313 2.20435 313 3V42C310.878 42 308.844 42.843 307.344 44.3433C305.843 45.8436 305 47.8783 305 50C305 52.1217 305.843 54.1564 307.344 55.6567C308.844 57.157 310.878 58 313 58V97C313 97.7956 312.684 98.5585 312.121 99.1211C311.558 99.6837 310.796 100 310 100ZM222 95C221.604 95 221.218 95.1172 220.889 95.3369C220.56 95.5567 220.304 95.8694 220.152 96.2349C220.001 96.6003 219.962 97.0022 220.039 97.3901C220.116 97.7781 220.306 98.1344 220.586 98.4141C220.866 98.6938 221.221 98.8843 221.609 98.9614C221.997 99.0386 222.4 98.999 222.766 98.8477C223.131 98.6963 223.442 98.4402 223.662 98.1113C223.882 97.7824 224 97.3956 224 97C224 96.4696 223.789 95.961 223.414 95.5859C223.039 95.2109 222.53 95 222 95ZM222 87C221.604 87 221.218 87.1172 220.889 87.3369C220.56 87.5567 220.304 87.8694 220.152 88.2349C220.001 88.6003 219.962 89.0022 220.039 89.3901C220.116 89.7781 220.306 90.1344 220.586 90.4141C220.866 90.6938 221.221 90.8843 221.609 90.9614C221.997 91.0386 222.4 90.999 222.766 90.8477C223.131 90.6963 223.442 90.4402 223.662 90.1113C223.882 89.7824 224 89.3956 224 89C224 88.4696 223.789 87.961 223.414 87.5859C223.039 87.2109 222.53 87 222 87ZM222 79C221.604 79 221.218 79.1172 220.889 79.3369C220.56 79.5567 220.304 79.8694 220.152 80.2349C220.001 80.6003 219.962 81.0022 220.039 81.3901C220.116 81.7781 220.306 82.1344 220.586 82.4141C220.866 82.6938 221.221 82.8843 221.609 82.9614C221.997 83.0386 222.4 82.999 222.766 82.8477C223.131 82.6963 223.442 82.4402 223.662 82.1113C223.882 81.7824 224 81.3956 224 81C224 80.4696 223.789 79.961 223.414 79.5859C223.039 79.2109 222.53 79 222 79ZM222 71C221.604 71 221.218 71.1172 220.889 71.3369C220.56 71.5567 220.304 71.8694 220.152 72.2349C220.001 72.6003 219.962 73.0022 220.039 73.3901C220.116 73.7781 220.306 74.1344 220.586 74.4141C220.866 74.6938 221.221 74.8843 221.609 74.9614C221.997 75.0386 222.4 74.999 222.766 74.8477C223.131 74.6963 223.442 74.4402 223.662 74.1113C223.882 73.7824 224 73.3956 224 73C224 72.4696 223.789 71.961 223.414 71.5859C223.039 71.2109 222.53 71 222 71ZM222 63C221.604 63 221.218 63.1172 220.889 63.3369C220.56 63.5567 220.304 63.8694 220.152 64.2349C220.001 64.6003 219.962 65.0022 220.039 65.3901C220.116 65.7781 220.306 66.1344 220.586 66.4141C220.866 66.6938 221.221 66.8843 221.609 66.9614C221.997 67.0386 222.4 66.999 222.766 66.8477C223.131 66.6963 223.442 66.4402 223.662 66.1113C223.882 65.7824 224 65.3956 224 65C224 64.4696 223.789 63.961 223.414 63.5859C223.039 63.2109 222.53 63 222 63ZM222 55C221.604 55 221.218 55.1172 220.889 55.3369C220.56 55.5567 220.304 55.8694 220.152 56.2349C220.001 56.6003 219.962 57.0022 220.039 57.3901C220.116 57.7781 220.306 58.1344 220.586 58.4141C220.866 58.6938 221.221 58.8843 221.609 58.9614C221.997 59.0386 222.4 58.999 222.766 58.8477C223.131 58.6963 223.442 58.4402 223.662 58.1113C223.882 57.7824 224 57.3956 224 57C224 56.4696 223.789 55.961 223.414 55.5859C223.039 55.2109 222.53 55 222 55ZM222 47C221.604 47 221.218 47.1172 220.889 47.3369C220.56 47.5567 220.304 47.8694 220.152 48.2349C220.001 48.6003 219.962 49.0022 220.039 49.3901C220.116 49.7781 220.306 50.1344 220.586 50.4141C220.866 50.6938 221.221 50.8843 221.609 50.9614C221.997 51.0386 222.4 50.999 222.766 50.8477C223.131 50.6963 223.442 50.4402 223.662 50.1113C223.882 49.7824 224 49.3956 224 49C224 48.4696 223.789 47.961 223.414 47.5859C223.039 47.2109 222.53 47 222 47ZM222 39C221.604 39 221.218 39.1172 220.889 39.3369C220.56 39.5567 220.304 39.8694 220.152 40.2349C220.001 40.6003 219.962 41.0022 220.039 41.3901C220.116 41.7781 220.306 42.1344 220.586 42.4141C220.866 42.6938 221.221 42.8843 221.609 42.9614C221.997 43.0386 222.4 42.999 222.766 42.8477C223.131 42.6963 223.442 42.4402 223.662 42.1113C223.882 41.7824 224 41.3956 224 41C224 40.4696 223.789 39.961 223.414 39.5859C223.039 39.2109 222.53 39 222 39ZM222 31C221.604 31 221.218 31.1172 220.889 31.3369C220.56 31.5567 220.304 31.8694 220.152 32.2349C220.001 32.6003 219.962 33.0022 220.039 33.3901C220.116 33.7781 220.306 34.1344 220.586 34.4141C220.866 34.6938 221.221 34.8843 221.609 34.9614C221.997 35.0386 222.4 34.999 222.766 34.8477C223.131 34.6963 223.442 34.4402 223.662 34.1113C223.882 33.7824 224 33.3956 224 33C224 32.4696 223.789 31.961 223.414 31.5859C223.039 31.2109 222.53 31 222 31ZM222 23C221.604 23 221.218 23.1172 220.889 23.3369C220.56 23.5567 220.304 23.8694 220.152 24.2349C220.001 24.6003 219.962 25.0022 220.039 25.3901C220.116 25.7781 220.306 26.1344 220.586 26.4141C220.866 26.6938 221.221 26.8843 221.609 26.9614C221.997 27.0386 222.4 26.999 222.766 26.8477C223.131 26.6963 223.442 26.4402 223.662 26.1113C223.882 25.7824 224 25.3956 224 25C224 24.4696 223.789 23.961 223.414 23.5859C223.039 23.2109 222.53 23 222 23ZM222 15C221.604 15 221.218 15.1172 220.889 15.3369C220.56 15.5567 220.304 15.8694 220.152 16.2349C220.001 16.6003 219.962 17.0022 220.039 17.3901C220.116 17.7781 220.306 18.1344 220.586 18.4141C220.866 18.6938 221.221 18.8843 221.609 18.9614C221.997 19.0386 222.4 18.999 222.766 18.8477C223.131 18.6963 223.442 18.4402 223.662 18.1113C223.882 17.7824 224 17.3956 224 17C224 16.4696 223.789 15.961 223.414 15.5859C223.039 15.2109 222.53 15 222 15ZM222 7C221.604 7 221.218 7.11715 220.889 7.33691C220.56 7.55668 220.304 7.86941 220.152 8.23486C220.001 8.60032 219.962 9.00217 220.039 9.39014C220.116 9.7781 220.306 10.1344 220.586 10.4141C220.866 10.6938 221.221 10.8843 221.609 10.9614C221.997 11.0386 222.4 10.999 222.766 10.8477C223.131 10.6963 223.442 10.4402 223.662 10.1113C223.882 9.78243 224 9.39556 224 9C224 8.46957 223.789 7.96101 223.414 7.58594C223.039 7.21086 222.53 7 222 7Z" fill="url(#paint0_linear_104_122)" />
	<defs>
		<linearGradient id="paint0_linear_104_122" x1="313" y1="100" x2="0" y2="100" gradientUnits="userSpaceOnUse">
			<stop stop-color="#4DABF5" />
			<stop offset="0.138091" stop-color="#42A0EA" />
			<stop offset="1" stop-color="#005BA2" />
		</linearGradient>
	</defs>
</svg>
