<svg width="250" height="250" viewBox="0 0 516 541" fill="none" xmlns="http://www.w3.org/2000/svg">
<path d="M437.75 54.5L437.754 54.5C449.197 54.4885 460.177 59.0174 468.285 67.0928C476.39 75.1659 480.963 86.1241 481 97.5637C481 97.567 481 97.5703 481 97.5735L481 378.437C481 402.157 461.612 421.5 437.75 421.5H282.33H281.319L280.464 422.038L137.375 512.159V425V421.5H133.875H63.75C39.8878 421.5 20.5 402.157 20.5 378.437V97.563C20.5 73.8428 39.8878 54.5 63.75 54.5L437.75 54.5Z" stroke="black" stroke-width="7"/>
<path d="M468.75 73H94.75C68.9674 73 48 93.8973 48 119.563V400.437C48 426.103 68.9674 447 94.75 447H164.875V540.5L313.33 447H468.75C494.533 447 515.5 426.103 515.5 400.437V119.563C515.463 107.193 510.52 95.3425 501.755 86.613C492.99 77.8834 481.12 72.9876 468.75 73Z" fill="#01469A"/>
<rect width="161" height="161" rx="23" fill="#0072CC"/>
<g clip-path="url(#clip0_202_67)">
<path d="M35 35H50V50H35V35Z" fill="white"/>
<path d="M65 20V65H20V20H65ZM57.5 27.5H27.5V57.5H57.5V27.5ZM50 110H35V125H50V110Z" fill="white"/>
<path d="M65 95V140H20V95H65ZM27.5 102.5V132.5H57.5V102.5H27.5ZM110 35H125V50H110V35Z" fill="white"/>
<path d="M95 20V65H140V20H95ZM132.5 27.5V57.5H102.5V27.5H132.5ZM80 27.5V20H87.5V35H80V50H72.5V27.5H80ZM80 65V50H87.5V65H80ZM65 80V72.5H72.5V65H80V80H87.5V72.5H125V80H95V87.5H72.5V80H65ZM65 80V87.5H35V80H27.5V87.5H20V72.5H42.5V80H65ZM140 87.5H132.5V72.5H140V87.5ZM132.5 87.5H125V102.5H140V95H132.5V87.5ZM102.5 87.5H117.5V95H110V102.5H102.5V87.5ZM117.5 110V102.5H110V110H102.5V117.5H87.5V125H110V110H117.5ZM117.5 110H140V117.5H125V125H117.5V110ZM87.5 102.5V110H95V95H72.5V102.5H87.5Z" fill="white"/>
<path d="M72.5 110H80V132.5H110V140H72.5V110ZM140 125V140H117.5V132.5H132.5V125H140Z" fill="white"/>
</g>
<path d="M139.539 213.96C139.539 216.755 139.898 219.268 140.616 221.499C141.334 223.704 142.36 225.576 143.693 227.115C145.052 228.653 146.706 229.833 148.655 230.653C150.629 231.448 152.873 231.846 155.386 231.846C157.873 231.846 160.091 231.448 162.04 230.653C163.989 229.833 165.63 228.653 166.963 227.115C168.322 225.576 169.361 223.704 170.079 221.499C170.797 219.268 171.156 216.755 171.156 213.96C171.156 211.191 170.797 208.704 170.079 206.498C169.361 204.268 168.322 202.383 166.963 200.844C165.63 199.306 163.989 198.126 162.04 197.306C160.091 196.485 157.873 196.075 155.386 196.075C152.873 196.075 150.629 196.485 148.655 197.306C146.706 198.126 145.052 199.306 143.693 200.844C142.36 202.383 141.334 204.268 140.616 206.498C139.898 208.704 139.539 211.191 139.539 213.96ZM187.618 252.5H176.925C175.387 252.5 174.002 252.295 172.771 251.885C171.566 251.5 170.438 250.77 169.387 249.693L162.425 241.885C160.245 242.372 157.899 242.615 155.386 242.615C151.027 242.615 147.052 241.885 143.462 240.423C139.872 238.961 136.795 236.948 134.231 234.384C131.693 231.794 129.718 228.756 128.308 225.269C126.923 221.781 126.231 218.012 126.231 213.96C126.231 209.909 126.923 206.139 128.308 202.652C129.718 199.165 131.693 196.139 134.231 193.575C136.795 191.011 139.872 188.998 143.462 187.536C147.052 186.074 151.027 185.344 155.386 185.344C159.745 185.344 163.707 186.087 167.271 187.575C170.861 189.036 173.925 191.049 176.464 193.613C179.002 196.177 180.964 199.203 182.349 202.691C183.759 206.178 184.464 209.935 184.464 213.96C184.464 216.371 184.208 218.691 183.695 220.922C183.208 223.127 182.49 225.204 181.541 227.153C180.618 229.102 179.464 230.91 178.079 232.577C176.72 234.243 175.169 235.718 173.425 237L187.618 252.5ZM210.383 212.306C212.152 212.306 213.652 212.088 214.883 211.653C216.14 211.191 217.165 210.563 217.96 209.768C218.755 208.973 219.332 208.05 219.691 206.998C220.05 205.922 220.23 204.768 220.23 203.537C220.23 201.075 219.422 199.152 217.806 197.767C216.217 196.383 213.742 195.69 210.383 195.69H205.152V212.306H210.383ZM238 242H226.23C224.05 242 222.486 241.179 221.537 239.538L212.229 223.268C211.793 222.576 211.306 222.076 210.768 221.768C210.229 221.435 209.46 221.268 208.46 221.268H205.152V242H192.151V185.959H210.383C214.434 185.959 217.883 186.382 220.73 187.228C223.601 188.049 225.935 189.203 227.73 190.69C229.55 192.177 230.871 193.934 231.692 195.96C232.512 197.985 232.922 200.19 232.922 202.575C232.922 204.396 232.679 206.114 232.192 207.729C231.704 209.345 230.986 210.845 230.038 212.229C229.089 213.589 227.909 214.807 226.499 215.883C225.114 216.96 223.512 217.845 221.691 218.537C222.537 218.973 223.332 219.525 224.076 220.191C224.819 220.832 225.486 221.602 226.076 222.499L238 242ZM288.438 211.576C288.079 212.012 287.733 212.358 287.4 212.614C287.066 212.871 286.592 212.999 285.976 212.999C285.387 212.999 284.848 212.858 284.361 212.576C283.899 212.294 283.374 211.986 282.784 211.653C282.194 211.294 281.502 210.973 280.707 210.691C279.912 210.409 278.925 210.268 277.745 210.268C276.284 210.268 275.014 210.537 273.937 211.076C272.886 211.614 272.014 212.383 271.322 213.383C270.63 214.383 270.117 215.614 269.783 217.076C269.45 218.512 269.283 220.14 269.283 221.961C269.283 225.781 270.014 228.717 271.476 230.769C272.963 232.82 275.002 233.846 277.591 233.846C278.976 233.846 280.066 233.679 280.861 233.346C281.681 232.987 282.374 232.602 282.938 232.192C283.502 231.756 284.015 231.359 284.476 231C284.964 230.641 285.566 230.461 286.284 230.461C287.233 230.461 287.951 230.807 288.438 231.5L291.9 235.769C290.669 237.179 289.374 238.333 288.015 239.231C286.656 240.102 285.258 240.795 283.822 241.308C282.412 241.795 280.989 242.128 279.553 242.308C278.117 242.513 276.72 242.615 275.361 242.615C272.925 242.615 270.591 242.154 268.36 241.231C266.155 240.308 264.206 238.974 262.514 237.231C260.847 235.461 259.514 233.294 258.514 230.73C257.539 228.166 257.052 225.243 257.052 221.961C257.052 219.089 257.475 216.409 258.321 213.922C259.193 211.409 260.462 209.242 262.129 207.422C263.822 205.575 265.899 204.127 268.36 203.075C270.848 202.024 273.719 201.498 276.976 201.498C280.104 201.498 282.848 201.998 285.207 202.998C287.566 203.998 289.695 205.46 291.592 207.383L288.438 211.576ZM314.25 201.498C317.276 201.498 320.032 201.973 322.519 202.921C325.007 203.87 327.135 205.229 328.904 206.998C330.699 208.768 332.084 210.922 333.058 213.46C334.058 215.973 334.558 218.807 334.558 221.961C334.558 225.14 334.058 228.012 333.058 230.576C332.084 233.115 330.699 235.282 328.904 237.077C327.135 238.846 325.007 240.218 322.519 241.192C320.032 242.141 317.276 242.615 314.25 242.615C311.198 242.615 308.416 242.141 305.903 241.192C303.416 240.218 301.262 238.846 299.442 237.077C297.647 235.282 296.249 233.115 295.249 230.576C294.275 228.012 293.787 225.14 293.787 221.961C293.787 218.807 294.275 215.973 295.249 213.46C296.249 210.922 297.647 208.768 299.442 206.998C301.262 205.229 303.416 203.87 305.903 202.921C308.416 201.973 311.198 201.498 314.25 201.498ZM314.25 233.769C316.994 233.769 319.006 232.807 320.289 230.884C321.596 228.935 322.25 225.986 322.25 222.038C322.25 218.089 321.596 215.153 320.289 213.23C319.006 211.306 316.994 210.345 314.25 210.345C311.429 210.345 309.365 211.306 308.057 213.23C306.75 215.153 306.096 218.089 306.096 222.038C306.096 225.986 306.75 228.935 308.057 230.884C309.365 232.807 311.429 233.769 314.25 233.769ZM364.756 212.806C363.859 211.806 362.884 211.114 361.833 210.729C360.782 210.319 359.679 210.114 358.525 210.114C357.423 210.114 356.41 210.332 355.487 210.768C354.564 211.204 353.756 211.909 353.063 212.883C352.397 213.832 351.871 215.076 351.486 216.614C351.102 218.153 350.91 220.012 350.91 222.191C350.91 224.294 351.063 226.063 351.371 227.499C351.679 228.935 352.102 230.102 352.64 231C353.204 231.871 353.871 232.5 354.64 232.884C355.41 233.269 356.269 233.461 357.217 233.461C358.089 233.461 358.871 233.384 359.564 233.23C360.282 233.051 360.936 232.807 361.525 232.5C362.115 232.192 362.666 231.807 363.179 231.346C363.718 230.858 364.243 230.307 364.756 229.692V212.806ZM376.68 184.421V242H369.295C367.808 242 366.833 241.333 366.372 240L365.449 236.961C364.654 237.808 363.82 238.577 362.948 239.269C362.077 239.961 361.128 240.564 360.102 241.077C359.102 241.564 358.012 241.936 356.833 242.192C355.679 242.474 354.422 242.615 353.063 242.615C350.986 242.615 349.063 242.154 347.294 241.231C345.525 240.308 343.999 238.974 342.717 237.231C341.435 235.487 340.422 233.359 339.678 230.846C338.96 228.307 338.601 225.422 338.601 222.191C338.601 219.217 339.012 216.46 339.832 213.922C340.653 211.358 341.807 209.152 343.294 207.306C344.807 205.434 346.614 203.973 348.717 202.921C350.82 201.87 353.14 201.344 355.679 201.344C357.756 201.344 359.5 201.639 360.91 202.229C362.32 202.819 363.602 203.614 364.756 204.614V184.421H376.68ZM409.544 217.268C409.544 216.319 409.416 215.396 409.16 214.499C408.929 213.601 408.531 212.806 407.967 212.114C407.429 211.396 406.711 210.819 405.813 210.383C404.916 209.947 403.826 209.729 402.544 209.729C400.287 209.729 398.518 210.383 397.236 211.691C395.954 212.973 395.108 214.832 394.697 217.268H409.544ZM394.544 224.192C394.928 227.525 395.941 229.948 397.582 231.461C399.223 232.948 401.339 233.692 403.929 233.692C405.313 233.692 406.506 233.525 407.506 233.192C408.506 232.859 409.39 232.487 410.16 232.076C410.955 231.666 411.673 231.294 412.314 230.961C412.98 230.628 413.673 230.461 414.391 230.461C415.339 230.461 416.057 230.807 416.545 231.5L420.006 235.769C418.775 237.179 417.442 238.333 416.006 239.231C414.596 240.102 413.134 240.795 411.621 241.308C410.134 241.795 408.634 242.128 407.121 242.308C405.634 242.513 404.211 242.615 402.852 242.615C400.057 242.615 397.428 242.167 394.967 241.269C392.531 240.346 390.39 238.987 388.543 237.192C386.723 235.397 385.274 233.166 384.197 230.499C383.146 227.833 382.62 224.73 382.62 221.191C382.62 218.525 383.069 215.999 383.966 213.614C384.889 211.229 386.197 209.14 387.889 207.345C389.608 205.55 391.672 204.127 394.082 203.075C396.518 202.024 399.262 201.498 402.313 201.498C404.954 201.498 407.365 201.909 409.544 202.729C411.75 203.55 413.634 204.742 415.198 206.306C416.788 207.87 418.019 209.793 418.891 212.076C419.788 214.332 420.237 216.896 420.237 219.768C420.237 220.666 420.199 221.397 420.122 221.961C420.045 222.525 419.904 222.974 419.699 223.307C419.493 223.64 419.211 223.871 418.852 223.999C418.519 224.127 418.083 224.192 417.545 224.192H394.544ZM211.179 297.614C212.615 296.383 214.167 295.396 215.833 294.652C217.526 293.883 219.539 293.498 221.872 293.498C224.052 293.498 225.975 293.883 227.642 294.652C229.334 295.396 230.757 296.447 231.911 297.806C233.065 299.14 233.937 300.742 234.526 302.614C235.116 304.46 235.411 306.473 235.411 308.653V334H223.488V308.653C223.488 306.704 223.039 305.191 222.141 304.114C221.244 303.011 219.923 302.46 218.18 302.46C216.872 302.46 215.641 302.742 214.487 303.306C213.359 303.845 212.256 304.588 211.179 305.537V334H199.256V276.421H211.179V297.614ZM267.937 309.268C267.937 308.319 267.808 307.396 267.552 306.499C267.321 305.601 266.924 304.806 266.36 304.114C265.821 303.396 265.103 302.819 264.206 302.383C263.308 301.947 262.218 301.729 260.936 301.729C258.68 301.729 256.91 302.383 255.628 303.691C254.346 304.973 253.5 306.832 253.09 309.268H267.937ZM252.936 316.192C253.321 319.525 254.333 321.948 255.974 323.461C257.616 324.948 259.731 325.692 262.321 325.692C263.706 325.692 264.898 325.525 265.898 325.192C266.898 324.859 267.783 324.487 268.552 324.076C269.347 323.666 270.065 323.294 270.706 322.961C271.373 322.628 272.065 322.461 272.783 322.461C273.732 322.461 274.45 322.807 274.937 323.5L278.399 327.769C277.168 329.179 275.834 330.333 274.398 331.231C272.988 332.102 271.526 332.795 270.014 333.308C268.526 333.795 267.026 334.128 265.513 334.308C264.026 334.513 262.603 334.615 261.244 334.615C258.449 334.615 255.821 334.167 253.359 333.269C250.923 332.346 248.782 330.987 246.936 329.192C245.115 327.397 243.666 325.166 242.589 322.499C241.538 319.833 241.012 316.73 241.012 313.191C241.012 310.525 241.461 307.999 242.359 305.614C243.282 303.229 244.589 301.14 246.282 299.345C248 297.55 250.064 296.127 252.474 295.075C254.91 294.024 257.654 293.498 260.705 293.498C263.347 293.498 265.757 293.909 267.937 294.729C270.142 295.55 272.026 296.742 273.591 298.306C275.18 299.87 276.411 301.793 277.283 304.076C278.181 306.332 278.629 308.896 278.629 311.768C278.629 312.666 278.591 313.397 278.514 313.961C278.437 314.525 278.296 314.974 278.091 315.307C277.886 315.64 277.604 315.871 277.245 315.999C276.911 316.127 276.475 316.192 275.937 316.192H252.936ZM295.75 300.268C296.981 298.114 298.391 296.421 299.981 295.191C301.597 293.96 303.443 293.344 305.52 293.344C307.315 293.344 308.776 293.767 309.905 294.614L309.135 303.383C309.007 303.947 308.789 304.332 308.482 304.537C308.2 304.742 307.802 304.845 307.289 304.845C307.084 304.845 306.815 304.832 306.482 304.806C306.148 304.781 305.802 304.755 305.443 304.729C305.084 304.678 304.712 304.64 304.328 304.614C303.969 304.563 303.635 304.537 303.328 304.537C301.584 304.537 300.186 304.999 299.135 305.922C298.109 306.845 297.238 308.127 296.52 309.768V334H284.596V294.114H291.673C292.263 294.114 292.75 294.165 293.135 294.268C293.545 294.37 293.878 294.537 294.135 294.768C294.417 294.973 294.622 295.255 294.75 295.614C294.904 295.973 295.032 296.409 295.135 296.921L295.75 300.268ZM338.102 309.268C338.102 308.319 337.974 307.396 337.717 306.499C337.486 305.601 337.089 304.806 336.525 304.114C335.986 303.396 335.268 302.819 334.371 302.383C333.473 301.947 332.384 301.729 331.102 301.729C328.845 301.729 327.076 302.383 325.794 303.691C324.512 304.973 323.665 306.832 323.255 309.268H338.102ZM323.101 316.192C323.486 319.525 324.499 321.948 326.14 323.461C327.781 324.948 329.896 325.692 332.486 325.692C333.871 325.692 335.063 325.525 336.063 325.192C337.063 324.859 337.948 324.487 338.717 324.076C339.512 323.666 340.23 323.294 340.871 322.961C341.538 322.628 342.23 322.461 342.948 322.461C343.897 322.461 344.615 322.807 345.102 323.5L348.564 327.769C347.333 329.179 346 330.333 344.564 331.231C343.153 332.102 341.692 332.795 340.179 333.308C338.692 333.795 337.192 334.128 335.679 334.308C334.191 334.513 332.768 334.615 331.409 334.615C328.614 334.615 325.986 334.167 323.524 333.269C321.088 332.346 318.947 330.987 317.101 329.192C315.28 327.397 313.832 325.166 312.755 322.499C311.703 319.833 311.178 316.73 311.178 313.191C311.178 310.525 311.626 307.999 312.524 305.614C313.447 303.229 314.755 301.14 316.447 299.345C318.165 297.55 320.229 296.127 322.64 295.075C325.076 294.024 327.819 293.498 330.871 293.498C333.512 293.498 335.922 293.909 338.102 294.729C340.307 295.55 342.192 296.742 343.756 298.306C345.346 299.87 346.577 301.793 347.448 304.076C348.346 306.332 348.795 308.896 348.795 311.768C348.795 312.666 348.756 313.397 348.679 313.961C348.602 314.525 348.461 314.974 348.256 315.307C348.051 315.64 347.769 315.871 347.41 315.999C347.077 316.127 346.641 316.192 346.102 316.192H323.101Z" fill="white"/>
<defs>
<clipPath id="clip0_202_67">
<rect width="120" height="120" fill="white" transform="translate(20 20)"/>
</clipPath>
</defs>
</svg>
